<?xml version="1.0" encoding="UTF-8"?>
<svg width="91px" height="26px" viewBox="0 0 91 26" version="1.1" xmlns="http://www.w3.org/2000/svg" xmlns:xlink="http://www.w3.org/1999/xlink">
    <!-- Generator: Sketch 46 (44423) - http://www.bohemiancoding.com/sketch -->
    <title>Slice 1</title>
    <desc>Created with Sketch.</desc>
    <defs></defs>
    <g id="Page-1" stroke="none" stroke-width="1" fill="none" fill-rule="evenodd">
        <g id="logo-white" fill="#B53C80">
            <path d="M34.0215909,18.4075949 C35.4693182,18.4075949 36.2522727,19.2734177 36.2522727,20.6556962 C36.2522727,21.5518987 35.8977273,22.3417722 35.2772727,22.9341772 C33.475,24.6962025 31.2738636,24.9848101 28.9988636,24.9848101 C23.8431818,24.9848101 19.6920455,20.6405063 19.6920455,15.2632911 C19.6920455,9.94683544 23.8431818,5.69367089 28.9988636,5.69367089 C33.8,5.69367089 37.6261364,9.4 38.0988636,14.2151899 L38.0988636,14.5189873 C38.0988636,16.1594937 36.7693182,17.435443 35.1738636,17.435443 L25.9409091,17.435443 C25.9409091,18.1797468 27.3147727,19.6075949 29.2647727,19.6075949 C32.1897727,19.5924051 32.0863636,18.4075949 34.0215909,18.4075949 L34.0215909,18.4075949 Z M32.1159091,13.3189873 C32.1159091,12.5291139 30.8897727,11.4050633 28.9397727,11.4050633 C26.9897727,11.4050633 25.8375,12.9088608 25.8375,13.3189873 L32.1159091,13.3189873 L32.1159091,13.3189873 Z" id="Shape"></path>
            <path d="M45.0420455,0.969620253 C46.6227273,0.969620253 47.9227273,2.04810127 47.9227273,4.52405063 L47.9227273,5.98227848 L48.6465909,5.98227848 C50.8181818,5.98227848 51.7931818,7.21265823 51.7931818,8.74683544 C51.7931818,10.356962 50.8181818,11.5873418 48.6465909,11.5873418 L47.9227273,11.5873418 L47.9227273,21.278481 C47.9227273,23.7544304 46.6227273,24.8329114 45.0420455,24.8329114 C43.3431818,24.8329114 42.0431818,23.7544304 42.0431818,21.278481 L42.0431818,11.5873418 L41.2897727,11.5873418 C39.0886364,11.5873418 38.1136364,10.356962 38.1136364,8.74683544 C38.1136364,7.21265823 39.0886364,5.98227848 41.2897727,5.98227848 L42.0431818,5.98227848 L42.0431818,4.52405063 C42.0431818,2.04810127 43.3431818,0.969620253 45.0420455,0.969620253 Z" id="Shape"></path>
            <path d="M11.6113636,9.55189873 C11.5965909,10.3721519 11.3602273,11.1924051 10.8727273,11.8911392 C9.5875,13.7594937 7.09090909,14.1848101 5.30340909,12.8632911 C5.05227273,12.6810127 4.81590909,12.4531646 4.62386364,12.2253165 C3.51590909,13.5012658 1.75795455,13.9113924 0.251136364,13.3037975 C0.132954545,13.9265823 0.0590909091,14.5797468 0.0590909091,15.2481013 C0.0590909091,20.6405063 4.21022727,24.9696203 9.36590909,24.9696203 C11.6409091,24.9696203 13.8420455,24.6658228 15.6443182,22.9189873 C16.2647727,22.3265823 16.6193182,21.5367089 16.6193182,20.6405063 C16.6193182,19.2582278 15.8215909,18.3924051 14.3886364,18.3924051 C12.4386364,18.3924051 12.5420455,19.5924051 9.63181818,19.5924051 C7.68181818,19.5924051 6.30795455,18.164557 6.30795455,17.4202532 L15.5409091,17.4202532 C17.1215909,17.4202532 18.4659091,16.1443038 18.4659091,14.5037975 L18.4659091,14.2 C18.2147727,11.678481 17.0625,9.46075949 15.3193182,7.92658228 C14.4181818,9.15696203 12.9852273,9.73417722 11.6113636,9.55189873 L11.6113636,9.55189873 Z" id="Shape"></path>
            <path d="M70.2147727,13.8050633 C70.2147727,11.1468354 67.9840909,8.82278481 65.4136364,8.82278481 C62.9170455,8.82278481 60.6125,9.87088608 60.6125,13.6075949 L60.6125,23.2987342 C60.6125,24.1189873 59.8590909,24.8329114 59.0909091,24.8329114 C58.2636364,24.8329114 57.5397727,24.1189873 57.5397727,23.2987342 L57.5397727,7.36455696 C57.5397727,6.5443038 58.2636364,5.83037975 59.0909091,5.83037975 C59.8147727,5.83037975 60.5681818,6.49873418 60.6125,7.28860759 C61.9125,6.24050633 63.5670455,5.67848101 65.3693182,5.67848101 C69.55,5.67848101 73.2727273,9.08101266 73.2727273,13.3493671 L73.2727273,23.2987342 C73.2727273,24.1189873 72.5193182,24.8329114 71.7511364,24.8329114 C70.9238636,24.8329114 70.2,24.1189873 70.2,23.2987342 L70.2,13.8050633 L70.2147727,13.8050633 Z" id="Shape"></path>
            <path d="M78.2806818,16.7974684 C78.2806818,19.4556962 80.5113636,21.7797468 83.0818182,21.7797468 C85.5784091,21.7797468 87.8829545,20.7316456 87.8829545,16.9949367 L87.8829545,7.37974684 C87.8829545,6.55949367 88.6363636,5.84556962 89.4045455,5.84556962 C90.2318182,5.84556962 90.9556818,6.55949367 90.9556818,7.37974684 L90.9556818,23.2379747 C90.9556818,24.0582278 90.2318182,24.7721519 89.4045455,24.7721519 C88.6806818,24.7721519 87.9272727,24.1037975 87.8829545,23.3139241 C86.5829545,24.3620253 84.9284091,25 83.1261364,25 C78.9454545,25 75.2227273,21.521519 75.2227273,17.2531646 L75.2227273,7.37974684 C75.2227273,6.55949367 75.9761364,5.84556962 76.7443182,5.84556962 C77.5715909,5.84556962 78.2954545,6.55949367 78.2954545,7.37974684 L78.2954545,16.7974684 L78.2806818,16.7974684 Z" id="Shape"></path>
            <path d="M50.5522727,22.3873418 C50.5522727,20.9746835 51.4681818,19.9721519 52.7681818,19.9721519 C54.0534091,19.9721519 54.9397727,20.9594937 54.9397727,22.3873418 C54.9397727,23.7696203 54.0977273,24.8025316 52.7238636,24.8025316 C51.4386364,24.8025316 50.5522727,23.7696203 50.5522727,22.3873418 L50.5522727,22.3873418 Z" id="Shape"></path>
        </g>
    </g>
</svg>